PathFileType	4	(X/Y/Z)	C:/Users/opensim2020/Desktop/walking_exp_matlab/subject03_walking07_straight_02.trc																																																																																																																																								
DataRate	CameraRate	NumFrames	NumMarkers	Units	OrigDataRate	OrigDataStartFrame	OrigNumFrames																																																																																																																																				
100	100	6	46	mm	100	1624	252																																																																																																																																				
Frame#	Time	LFHD			RFHD			LBHD			RBHD			C7			T10			CLAV			STRN			RBAK			LSHO			LUPA			LELB			LFRM			LWRA			LWRB			LFIN			RSHO			RUPA			RELB			RFRM			RWRA			RWRB			RFIN			LASI			RASI			LPSI			RPSI			LTHI			LKNE			LTIB			LANK			LHEE			LTOE			RTHI			RKNE			RTIB			RANK			RHEE			RTOE			*39			*40			*41			*42			*43			*44			*45		
		X1	Y1	Z1	X2	Y2	Z2	X3	Y3	Z3	X4	Y4	Z4	X5	Y5	Z5	X6	Y6	Z6	X7	Y7	Z7	X8	Y8	Z8	X9	Y9	Z9	X10	Y10	Z10	X11	Y11	Z11	X12	Y12	Z12	X13	Y13	Z13	X14	Y14	Z14	X15	Y15	Z15	X16	Y16	Z16	X17	Y17	Z17	X18	Y18	Z18	X19	Y19	Z19	X20	Y20	Z20	X21	Y21	Z21	X22	Y22	Z22	X23	Y23	Z23	X24	Y24	Z24	X25	Y25	Z25	X26	Y26	Z26	X27	Y27	Z27	X28	Y28	Z28	X29	Y29	Z29	X30	Y30	Z30	X31	Y31	Z31	X32	Y32	Z32	X33	Y33	Z33	X34	Y34	Z34	X35	Y35	Z35	X36	Y36	Z36	X37	Y37	Z37	X38	Y38	Z38	X39	Y39	Z39	X40	Y40	Z40	X41	Y41	Z41	X42	Y42	Z42	X43	Y43	Z43	X44	Y44	Z44	X45	Y45	Z45	X46	Y46	Z46
																																																																																																																																											
158	1.57	402.94769	1596.49316	957.41754	389.26428	1601.05627	1089.53772	272.19189	1562.0918	948.5174	263.57309	1565.828	1079.224	227.42967	1400.58777	1003.74884	193.26384	1084.87012	1000.17596	347.14401	1321.30347	1012.75775	390.84854	1158.07715	1004.68939	164.00253	1221.15039	1089.97168	316.28485	1360.89417	855.27911	348.05099	1171.36243	779.64514	389.50821	1055.47607	770.33392	464.35745	952.37451	791.14392	524.67096	859.48969	841.62097	514.01215	849.79742	787.57635	568.65063	791.7561	810.61328	288.34512	1340.45288	1169.5332	265.5831	1116.02783	1233.02563	268.03958	1002.13416	1242.91455	265.87259	864.81317	1242.08972	284.64221	766.6908	1205.93433	250.65627	764.99768	1248.86267	261.59708	690.8866	1235.7865	363.5491	919.50696	884.9931	365.84183	926.95264	1124.85571	202.2793	941.50635	939.11084	203.21318	950.49524	1087.43579	264.70566	624.11859	849.86823	224.97458	448.57651	880.47028	90.24919	296.42798	879.15112	-26.04676	120.77293	919.06415	-79.41322	109.05859	954.08325	91.84195	28.08137	955.25653	364.62244	637.59106	1166.71973	428.3707	467.39166	1127.92334	433.76974	279.78229	1134.44617	467.4722	65.75156	1089.47632	426.77655	34.9297	1034.98206	610.34625	33.12605	1079.2196	NaN	NaN	NaN	320.63812	1662.28809	1002.10388	NaN	NaN	NaN	NaN	NaN	NaN	NaN	NaN	NaN	NaN	NaN	NaN	NaN	NaN	NaN
159	1.58	413.69022	1598.09216	958.34302	400.15677	1602.64075	1090.44458	283.19485	1563.90356	949.60913	274.33112	1567.72461	1080.26086	237.97063	1402.25891	1004.45703	204.02153	1086.41565	1000.21973	357.62823	1323.16589	1013.81409	401.70688	1160.00061	1005.8147	174.71085	1222.68457	1090.85095	326.91595	1362.87952	856.29608	356.9696	1172.57727	781.16266	397.09488	1056.17627	772.12488	470.34909	951.75861	792.36072	529.63293	857.89923	842.18475	518.25061	848.33417	788.32281	572.11725	789.42865	810.84058	298.83844	1342.37268	1170.48071	277.26007	1117.77124	1233.81409	280.38467	1003.8703	1243.526	278.48569	866.65594	1243.17871	297.24579	768.4762	1206.93823	263.46307	766.81268	1250.24146	274.20917	692.54871	1237.07068	375.32004	920.43817	886.47394	376.82953	930.17285	1126.13342	214.13741	942.60883	939.36029	214.25661	953.01569	1087.57703	278.31973	624.22363	850.41278	240.02205	448.27786	879.67206	101.46636	299.1712	878.86383	-19.86517	127.50459	919.15314	-72.70083	118.27379	954.69641	92.31102	27.92263	955.41882	374.1362	639.646	1167.4751	436.56839	469.38022	1128.48755	438.1655	280.75833	1135.2356	467.62537	65.95546	1089.74487	426.74319	34.96151	1035.31104	610.29926	32.91759	1079.73767	NaN	NaN	NaN	331.58896	1664.12048	1002.99365	NaN	NaN	NaN	NaN	NaN	NaN	NaN	NaN	NaN	NaN	NaN	NaN	NaN	NaN	NaN
160	1.59	424.41025	1599.65784	959.2749	411.03235	1604.25342	1091.36401	293.80261	1565.98535	950.59265	285.10913	1569.81018	1081.2876	248.2495	1404.11023	1005.72693	214.73172	1088.14502	1000.25562	368.13879	1325.19812	1014.80621	412.38928	1161.98267	1006.92426	185.40326	1224.40417	1091.78967	337.43182	1365.05286	857.37451	365.87161	1174.09753	782.76611	404.37964	1057.02478	774.04462	476.16092	951.427	793.59058	534.17987	856.33881	842.72522	522.07806	847.05145	788.99298	574.87683	787.02197	810.94873	309.09213	1344.58386	1171.52307	288.76947	1119.72302	1234.81555	292.74619	1005.94025	1244.31775	291.29834	868.80469	1244.37402	309.88248	770.32678	1208.37939	276.64841	768.87872	1251.65979	287.27011	694.46545	1238.46667	387.04657	921.69232	888.08093	387.68079	933.33008	1127.49414	225.91989	943.9671	939.68854	225.2691	955.49878	1087.79224	292.3782	624.44666	850.74115	256.27118	447.98874	878.45599	113.73325	302.11298	878.367	-12.05401	134.53647	919.47522	-64.52575	128.13829	955.53131	93.13415	27.83632	956.00562	383.79547	641.76923	1169.1123	443.38272	470.89523	1129.64966	441.28818	281.32816	1136.32043	467.45004	66.13232	1090.08691	426.56842	35.00465	1035.6427	610.23071	32.75171	1080.17688	NaN	NaN	NaN	342.97223	1666.45996	1003.71606	NaN	NaN	NaN	NaN	NaN	NaN	NaN	NaN	NaN	NaN	NaN	NaN	NaN	NaN	NaN
161	1.6	435.08777	1601.17407	960.11768	421.80127	1605.70874	1092.22632	304.35794	1568.12085	951.4657	295.77094	1571.88379	1082.16589	258.60013	1405.81189	1006.65314	225.47948	1089.82007	1000.45758	378.57068	1327.10864	1015.79602	423.18155	1164.04553	1007.94708	196.24171	1226.09644	1092.74939	347.89639	1367.26831	858.45947	374.91864	1175.81702	784.37476	411.76877	1058.19055	775.98907	481.67377	951.16528	794.74994	538.31384	854.78198	843.15558	525.59418	845.84094	789.47833	577.04883	784.43976	810.85736	319.50732	1346.79895	1172.25842	300.38553	1121.98303	1235.61951	304.92435	1008.26385	1245.37744	304.30298	871.13446	1245.62329	323.27814	772.63281	1209.71655	290.17368	771.1272	1253.16541	300.74814	696.62201	1240.04919	398.65695	923.25464	890.14221	398.44263	936.23419	1128.82861	237.32942	945.755	940.36707	236.23558	957.92059	1088.29993	306.80157	624.74542	850.85132	273.54648	447.64923	876.92798	127.21723	305.17416	877.62506	-3.01147	141.68321	919.82813	-54.66429	138.32999	956.48456	94.32111	27.76153	956.82788	393.07034	643.97424	1171.14258	449.01825	471.80597	1131.34033	443.45364	281.47491	1137.30408	467.31241	66.23199	1090.24585	426.4502	34.96212	1035.92896	610.18317	32.64349	1080.24231	NaN	NaN	NaN	353.74823	1668.08716	1004.78308	NaN	NaN	NaN	NaN	NaN	NaN	NaN	NaN	NaN	NaN	NaN	NaN	NaN	NaN	NaN
162	1.61	445.64774	1602.61023	960.9342	432.43707	1607.02295	1092.9873	314.83469	1570.26331	952.27869	306.25284	1573.89478	1082.93457	269.13242	1407.35156	1007.00824	236.13542	1091.4342	1001.02954	389.06192	1328.98181	1016.59869	434.05463	1165.99731	1008.90753	207.10625	1227.72034	1093.69727	358.24289	1369.4668	859.51074	383.94095	1177.49609	786.04181	418.98956	1059.32141	777.89014	487.07959	950.9021	795.76007	542.4176	853.24066	843.39813	528.86194	844.66199	789.8186	578.73273	781.6792	810.72504	329.72546	1349.05298	1173.18884	311.83322	1124.20911	1236.6936	317.1181	1010.62421	1246.47778	317.44525	873.49011	1247.00256	337.05847	775.0127	1211.25146	304.07913	773.50433	1254.828	314.685	698.84784	1241.53821	409.91336	924.80328	891.75043	409.11481	938.82874	1130.19739	248.73431	947.37701	941.27649	247.17232	960.17456	1089.0968	321.44382	624.8371	850.75073	291.69351	447.1955	875.20953	141.87784	308.14188	876.86212	7.78222	148.93544	919.67236	-43.17257	148.79173	957.37067	95.31464	27.69973	957.67719	401.18192	645.37335	1172.64478	453.83417	472.23807	1133.23389	445.38516	281.64972	1137.98413	467.17102	66.35519	1090.28821	426.37897	34.95574	1036.026	610.14075	32.5728	1080.3363	NaN	NaN	NaN	364.97592	1669.85596	1005.47876	NaN	NaN	NaN	NaN	NaN	NaN	NaN	NaN	NaN	NaN	NaN	NaN	NaN	NaN	NaN
163	1.62	456.177	1603.79846	961.73401	442.97153	1608.12964	1093.75049	325.18552	1572.13477	952.99481	316.63339	1575.7179	1083.65515	279.36462	1408.66687	1008.0274	246.70461	1092.81006	1001.85736	399.50079	1330.6344	1017.42865	444.67868	1167.69946	1009.73444	217.93257	1229.18774	1094.62244	368.4808	1371.36951	860.5116	393.0127	1179.20764	787.57404	426.04129	1060.34045	779.67645	492.34979	950.5827	796.62457	546.59521	851.79517	843.43018	532.05988	843.47467	789.98749	580.28693	778.76038	810.51373	340.1004	1351.02222	1173.68103	323.20969	1126.41077	1237.81921	329.22156	1012.93317	1247.78845	330.71075	875.8559	1248.48315	351.23352	777.42456	1212.90051	318.1947	775.8233	1256.5116	329.17328	701.09406	1243.35339	420.67352	926.26373	893.51721	419.58517	940.87024	1131.51807	259.57016	949.15576	942.43646	258.15289	962.23047	1090.22803	336.32544	624.84137	850.56122	310.22681	446.44357	873.76276	157.82193	310.95697	876.25354	19.71798	155.52013	919.44513	-30.09994	159.34685	957.67853	96.31593	27.79442	957.91376	408.3429	646.367	1173.82043	458.2749	472.22983	1135.01892	447.73981	281.81619	1138.69861	467.31448	66.39648	1090.17615	426.41336	35.01235	1035.98853	610.27051	32.44948	1080.34949	NaN	NaN	NaN	NaN	NaN	NaN	NaN	NaN	NaN	NaN	NaN	NaN	NaN	NaN	NaN	NaN	NaN	NaN	NaN	NaN	NaN
